<svg width="150" height="44" viewBox="0 0 150 44" fill="none" xmlns="http://www.w3.org/2000/svg"><path fill-rule="evenodd" clip-rule="evenodd" d="M5.562 0h137.963c3.091 0 5.519 2.53 5.519 5.5v33c0 3.08-2.428 5.5-5.519 5.5H5.562c-3.09 0-5.518-2.42-5.518-5.5v-33C.044 2.42 2.472 0 5.562 0zm142.599 5.5c0-2.53-2.097-4.62-4.636-4.62H5.562C3.024.88.927 2.97.927 5.5v33c0 2.53 2.097 4.62 4.635 4.62h137.963c2.539 0 4.636-2.09 4.636-4.62v-33z" fill="#434C54"/><path d="M36.462 21.878a5.657 5.657 0 012.705-4.75 5.82 5.82 0 00-4.58-2.467c-1.928-.202-3.796 1.15-4.779 1.15-1 0-2.513-1.13-4.141-1.097a6.103 6.103 0 00-5.134 3.12c-2.22 3.83-.564 9.46 1.562 12.556 1.064 1.516 2.308 3.21 3.934 3.15 1.592-.066 2.187-1.012 4.109-1.012 1.903 0 2.461 1.011 4.121.973 1.708-.027 2.785-1.523 3.811-3.053a12.52 12.52 0 001.743-3.538 5.47 5.47 0 01-3.35-5.032zm-3.135-9.253a5.561 5.561 0 001.28-3.993 5.696 5.696 0 00-3.682 1.898 5.292 5.292 0 00-1.313 3.845 4.71 4.71 0 003.715-1.75z" fill="#434C54"/><path fill-rule="evenodd" clip-rule="evenodd" d="M50.338 29.853h5.224l1.254 3.692h2.25l-4.948-13.66h-2.3l-4.948 13.66h2.213l1.255-3.692zm4.682-1.703h-4.141l2.042-5.992h.057l2.042 5.992zm10.563 5.5c2.508 0 4.17-1.989 4.17-5.083 0-3.087-1.672-5.085-4.208-5.085a3.547 3.547 0 00-3.182 1.761h-.038v-1.656H60.34V36.84h2.051v-4.933h.048a3.39 3.39 0 003.144 1.743zm-.58-8.425c1.596 0 2.642 1.325 2.642 3.342 0 2.034-1.046 3.35-2.641 3.35-1.567 0-2.621-1.344-2.621-3.35 0-1.989 1.054-3.342 2.62-3.342zm11.578 8.425c2.508 0 4.17-1.989 4.17-5.083 0-3.087-1.672-5.085-4.208-5.085a3.547 3.547 0 00-3.181 1.761h-.038v-1.656h-1.986V36.84h2.052v-4.933h.047a3.39 3.39 0 003.144 1.743zm-.579-8.425c1.595 0 2.64 1.325 2.64 3.342 0 2.034-1.045 3.35-2.64 3.35-1.567 0-2.621-1.344-2.621-3.35 0-1.989 1.054-3.342 2.621-3.342z" fill="#434C54"/><path d="M88.02 29.74c.151 1.354 1.472 2.244 3.276 2.244 1.729 0 2.973-.89 2.973-2.111 0-1.06-.75-1.695-2.527-2.13l-1.776-.427c-2.517-.605-3.685-1.779-3.685-3.682 0-2.357 2.06-3.976 4.986-3.976 2.897 0 4.883 1.62 4.95 3.976h-2.071c-.124-1.363-1.255-2.186-2.907-2.186-1.653 0-2.783.832-2.783 2.044 0 .966.722 1.534 2.489 1.97l1.51.369c2.812.662 3.979 1.788 3.979 3.786 0 2.556-2.041 4.156-5.29 4.156-3.04 0-5.092-1.563-5.224-4.033h2.1zm12.843-8.51v2.357h1.9v1.619h-1.9v5.49c0 .853.38 1.25 1.216 1.25.225-.004.45-.02.674-.047v1.61c-.375.07-.757.1-1.139.094-2.023 0-2.812-.758-2.812-2.689v-5.708h-1.453v-1.62h1.453V21.23h2.061z" fill="#434C54"/><path fill-rule="evenodd" clip-rule="evenodd" d="M108.602 23.464c-2.888 0-4.739 1.97-4.739 5.103 0 3.142 1.833 5.102 4.739 5.102 2.907 0 4.74-1.96 4.74-5.102 0-3.134-1.843-5.103-4.74-5.103zm0 1.685c1.662 0 2.65 1.268 2.65 3.418 0 2.158-.988 3.417-2.65 3.417s-2.651-1.259-2.651-3.417c0-2.14.989-3.418 2.651-3.418z" fill="#434C54"/><path d="M115.033 23.587h1.956v1.695h.048a2.382 2.382 0 012.404-1.8c.236 0 .472.026.702.077v1.912a2.87 2.87 0 00-.921-.123 2.071 2.071 0 00-1.598.655 2.056 2.056 0 00-.54 1.636v5.907h-2.051v-9.96z" fill="#434C54"/><path fill-rule="evenodd" clip-rule="evenodd" d="M125.297 33.67c2.261 0 4.027-1.241 4.303-3.05h-1.948a2.26 2.26 0 01-2.307 1.402 2.606 2.606 0 01-1.983-.806 2.589 2.589 0 01-.705-2.015v-.124h7.057v-.7c0-3.02-1.738-4.913-4.503-4.913-2.811 0-4.625 2.026-4.625 5.15 0 3.114 1.804 5.055 4.711 5.055zm2.365-6.022h-4.996a2.52 2.52 0 01.744-1.792 2.536 2.536 0 011.801-.735c.67-.014 1.315.25 1.78.73.465.48.708 1.131.671 1.797zM53.469 10.77a2.846 2.846 0 00-2.316-.935h-2.371v6.82h2.37c1.956 0 3.09-1.253 3.09-3.431a3.092 3.092 0 00-.773-2.454zm-2.43 4.92H49.8V10.8h1.238a2.03 2.03 0 011.636.688 2.21 2.21 0 01.529 1.75 2.2 2.2 0 01-.521 1.761c-.42.476-1.024.73-1.644.691zm5.452-3.914a2.47 2.47 0 00-1.098 2.303 2.47 2.47 0 001.097 2.308 2.27 2.27 0 002.477 0 2.47 2.47 0 001.098-2.308 2.47 2.47 0 00-1.1-2.303 2.272 2.272 0 00-2.474 0zm1.24.536c.846 0 1.328.652 1.328 1.767 0 1.12-.482 1.772-1.329 1.772-.85 0-1.327-.647-1.327-1.772 0-1.115.477-1.768 1.327-1.768z" fill="#434C54"/><path d="M66.275 16.654H65.26l-1.023-3.79h-.078l-1.019 3.79h-1.004l-1.366-5.146h.992l.887 3.927h.073l1.018-3.927h.938l1.019 3.927h.077l.883-3.927h.978l-1.36 5.146zm2.508-5.146h.941v.818h.073c.254-.602.848-.97 1.478-.917a1.58 1.58 0 011.3.529c.334.372.486.882.415 1.385v3.331h-.978v-3.076c0-.827-.346-1.238-1.069-1.238a1.115 1.115 0 00-.88.37 1.21 1.21 0 00-.303.934v3.01h-.977v-5.146zM74.547 9.5h.978v7.155h-.978V9.5z" fill="#434C54"/><path fill-rule="evenodd" clip-rule="evenodd" d="M77.982 11.776a2.47 2.47 0 00-1.098 2.303 2.47 2.47 0 001.097 2.308 2.27 2.27 0 002.477 0 2.47 2.47 0 001.098-2.308 2.47 2.47 0 00-1.099-2.303 2.272 2.272 0 00-2.475 0zm1.24.536c.846 0 1.328.652 1.328 1.767 0 1.12-.482 1.772-1.329 1.772-.85 0-1.328-.647-1.328-1.772 0-1.115.478-1.767 1.328-1.767zm5.205 1.351c-1.178.076-1.842.61-1.842 1.536.002.44.182.858.497 1.151a1.46 1.46 0 001.154.39 1.65 1.65 0 001.488-.808h.077v.723h.941v-3.517c0-1.086-.7-1.729-1.942-1.729-1.124 0-1.924.567-2.024 1.451h.947c.108-.364.486-.572 1.032-.572.668 0 1.014.307 1.014.85v.445l-1.342.08zm1.342.666v.43a1.23 1.23 0 01-.412.846 1.138 1.138 0 01-.87.28c-.532 0-.92-.27-.92-.733 0-.454.31-.695.992-.742l1.21-.08zm4.314-2.906c-1.251 0-2.056 1.03-2.056 2.656 0 1.63.796 2.66 2.056 2.66a1.706 1.706 0 001.555-.897h.078v.813h.936V9.5h-.977v2.826h-.073a1.622 1.622 0 00-1.52-.903zm.277 4.405c-.828 0-1.323-.657-1.323-1.749 0-1.082.5-1.744 1.323-1.744.819 0 1.333.676 1.333 1.749 0 1.077-.509 1.744-1.333 1.744zm7.436-4.052a2.47 2.47 0 00-1.1 2.303 2.47 2.47 0 001.098 2.308 2.27 2.27 0 002.477 0 2.471 2.471 0 001.098-2.308 2.47 2.47 0 00-1.099-2.303 2.272 2.272 0 00-2.474 0zm1.238.536c.847 0 1.329.652 1.329 1.767 0 1.12-.482 1.772-1.329 1.772-.85 0-1.327-.647-1.327-1.772 0-1.115.478-1.768 1.327-1.768z" fill="#434C54"/><path d="M102.68 11.508h.941v.818h.073c.255-.602.848-.97 1.479-.917a1.58 1.58 0 011.3.529c.333.372.486.882.414 1.385v3.331h-.977v-3.076c0-.827-.346-1.238-1.069-1.238a1.115 1.115 0 00-.88.37 1.21 1.21 0 00-.303.934v3.01h-.978v-5.146zm9.731-1.281v1.305h1.073v.855h-1.073v2.646c0 .54.213.776.7.776a3.1 3.1 0 00.373-.024v.846c-.176.033-.354.05-.532.052-1.087 0-1.52-.397-1.52-1.39v-2.906h-.786v-.855h.786v-1.305h.979zm2.408-.727h.969v2.835h.077a1.519 1.519 0 011.511-.921 1.6 1.6 0 011.287.542c.33.371.483.876.419 1.376v3.323h-.979v-3.072c0-.822-.368-1.239-1.059-1.239-.34-.029-.675.1-.916.351-.24.252-.362.6-.331.954v3.006h-.978V9.5z" fill="#434C54"/><path fill-rule="evenodd" clip-rule="evenodd" d="M122.635 16.754c.968.11 1.872-.518 2.146-1.489h-.941c-.234.437-.7.684-1.178.624a1.285 1.285 0 01-.973-.434 1.39 1.39 0 01-.346-1.04v-.057h3.498v-.354c0-1.616-.832-2.595-2.21-2.595a2.25 2.25 0 00-1.733.803 2.436 2.436 0 00-.551 1.886 2.4 2.4 0 00.552 1.878 2.213 2.213 0 001.736.778zm1.21-3.147h-2.502a1.339 1.339 0 01.371-.948c.241-.25.57-.39.911-.385.337-.008.662.132.894.386.232.254.351.598.326.947z" fill="#434C54"/></svg>