<svg width="150" height="44" viewBox="0 0 150 44" fill="none" xmlns="http://www.w3.org/2000/svg"><path fill-rule="evenodd" clip-rule="evenodd" d="M5.562 0h137.963c3.091 0 5.519 2.53 5.519 5.5v33c0 3.08-2.428 5.5-5.519 5.5H5.562c-3.09 0-5.518-2.42-5.518-5.5v-33C.044 2.42 2.472 0 5.562 0zm142.599 5.5c0-2.53-2.097-4.62-4.636-4.62H5.562C3.024.88.927 2.97.927 5.5v33c0 2.53 2.097 4.62 4.635 4.62h137.963c2.539 0 4.636-2.09 4.636-4.62v-33z" fill="#434C54"/><path d="M52.36 11.22c0 .88-.221 1.65-.773 2.2-.662.66-1.435.99-2.428.99-.993 0-1.766-.33-2.428-.99-.663-.66-.994-1.43-.994-2.42s.331-1.76.994-2.42c.662-.66 1.434-.99 2.428-.99.441 0 .883.11 1.324.33.442.22.773.44.994.77l-.552.55c-.442-.55-.994-.77-1.766-.77-.662 0-1.325.22-1.766.77-.552.44-.773 1.1-.773 1.87s.221 1.43.773 1.87c.552.44 1.104.77 1.766.77.772 0 1.324-.22 1.876-.77.331-.33.552-.77.552-1.32h-2.428v-.77h3.2v.33zm5.076-2.75h-2.98v2.09h2.76v.77h-2.76v2.09h2.98v.88h-3.862V7.7h3.862v.77zm3.643 5.83h-.883V8.47H58.32V7.7h4.635v.77H61.08v5.83zm5.077 0V7.7h.883v6.6h-.883zm4.635 0h-.882V8.47h-1.877V7.7h4.525v.77h-1.876v5.83h.11z" fill="#434C54" stroke="#434C54" stroke-width=".2"/><path fill-rule="evenodd" clip-rule="evenodd" d="M78.849 14.41c.993 0 1.765-.33 2.428-.99.662-.66.993-1.43.993-2.42s-.331-1.76-.993-2.42c-.663-.66-1.435-.99-2.428-.99-.994 0-1.766.33-2.429.99-.662.66-.993 1.43-.993 2.42s.331 1.76.993 2.42c.663.66 1.435.99 2.428.99zm0-.77c-.663 0-1.325-.33-1.766-.77-.552-.44-.773-1.1-.773-1.87s.331-1.43.773-1.87c.441-.55 1.103-.77 1.766-.77.662 0 1.324.33 1.765.77.552.44.773 1.1.773 1.87s-.331 1.43-.773 1.87c-.441.55-1.103.77-1.766.77z" fill="#434C54"/><path d="M81.277 8.58l.07-.071-.07.07zm-4.857 0l-.07-.071.07.07zm0 4.84l.07-.071-.07.07zm.663-.55l.07-.071-.008-.007-.062.078zm0-3.74l.07.071.007-.009-.077-.062zm3.531 0l-.07.071.008.007.062-.078zm0 3.74l-.07-.071-.008.008.078.063zm.592.479c-.643.641-1.39.96-2.358.96v.2c1.02 0 1.818-.34 2.5-1.018l-.142-.142zm.964-2.35c0 .964-.32 1.709-.964 2.35l.141.142c.681-.68 1.023-1.475 1.023-2.491h-.2zm-.964-2.348c.643.64.964 1.385.964 2.349h.2c0-1.017-.342-1.812-1.023-2.491l-.141.142zm-2.358-.961c.968 0 1.715.32 2.358.96l.141-.141c-.68-.679-1.479-1.02-2.498-1.02v.2zm-2.357.96c.643-.64 1.39-.96 2.358-.96v-.2c-1.02 0-1.818.34-2.5 1.019l.142.142zM75.527 11c0-.964.32-1.708.964-2.35l-.141-.141c-.681.679-1.023 1.474-1.023 2.49h.2zm.964 2.349c-.644-.641-.964-1.386-.964-2.35h-.2c0 1.017.342 1.813 1.023 2.492l.14-.142zm2.358.96c-.968 0-1.715-.319-2.358-.96l-.141.142c.68.678 1.479 1.019 2.499 1.019v-.2zm-1.837-1.368c.457.455 1.143.799 1.837.799v-.2c-.632 0-1.27-.316-1.696-.741l-.141.142zM76.21 11c0 .788.227 1.483.81 1.948l.125-.156c-.52-.415-.735-1.04-.735-1.792h-.2zm.802-1.941a2.749 2.749 0 00-.802 1.94h.2c0-.74.319-1.375.743-1.798l-.141-.142zm1.837-.8c-.684 0-1.379.228-1.844.808l.156.125c.417-.52 1.046-.732 1.688-.732v-.2zm1.836.8c-.457-.455-1.143-.8-1.837-.8v.2c.632 0 1.27.317 1.696.742l.141-.142zm.802 1.94c0-.788-.227-1.482-.81-1.947l-.125.156c.52.415.735 1.04.735 1.792h.2zm-.802 1.942A2.75 2.75 0 0081.487 11h-.2a2.55 2.55 0 01-.743 1.799l.141.142zm-1.837.799c.684 0 1.379-.227 1.844-.808l-.156-.125c-.417.52-1.046.733-1.688.733v.2z" fill="#434C54"/><path d="M83.484 14.3V7.7h.993l3.201 5.17V7.7h.883v6.6h-.883l-3.421-5.39v5.39h-.773z" fill="#434C54" stroke="#434C54" stroke-width=".2"/><path fill-rule="evenodd" clip-rule="evenodd" d="M52.69 25.41v1.98h4.747c-.11 1.1-.552 1.98-1.104 2.53-.662.66-1.766 1.43-3.642 1.43-2.98 0-5.188-2.31-5.188-5.28s2.318-5.28 5.188-5.28c1.545 0 2.759.66 3.642 1.43l1.435-1.43c-1.214-1.1-2.76-1.98-4.967-1.98-3.973 0-7.395 3.3-7.395 7.26s3.422 7.26 7.395 7.26c2.207 0 3.753-.66 5.077-2.09 1.325-1.32 1.766-3.19 1.766-4.62 0-.44 0-.88-.11-1.21H52.69zm12.252-1.43c-2.65 0-4.746 1.98-4.746 4.73 0 2.64 2.097 4.73 4.746 4.73 2.649 0 4.746-1.98 4.746-4.73 0-2.86-2.097-4.73-4.746-4.73zm5.518 4.73c0-2.75 2.097-4.73 4.746-4.73 2.65 0 4.746 1.87 4.746 4.73 0 2.75-2.097 4.73-4.746 4.73-2.649 0-4.746-2.09-4.746-4.73zm2.097-.11c0 1.65 1.214 2.86 2.65 2.86 1.434 0 2.648-1.21 2.648-2.86 0-1.76-1.214-2.86-2.649-2.86s-2.649 1.21-2.649 2.86zm-10.264 0c0 1.65 1.214 2.86 2.649 2.86s2.649-1.21 2.649-2.86c0-1.76-1.214-2.86-2.65-2.86-1.434 0-2.648 1.21-2.648 2.86zm36.533-4.62c2.428 0 3.531 1.87 3.973 2.97l.221.55-6.291 2.64c.551.99 1.213 1.43 2.317 1.43s1.766-.55 2.318-1.32l1.545 1.1c-.441.77-1.766 2.09-3.863 2.09-2.649 0-4.635-2.09-4.635-4.73 0-2.86 1.986-4.73 4.415-4.73zm-2.429 4.51c0-1.76 1.435-2.75 2.428-2.75.773 0 1.546.44 1.766.99l-4.194 1.76zM93.307 33H91.21V19.25h2.097V33zm-5.408-8.03c-.552-.55-1.435-1.1-2.539-1.1-2.317 0-4.525 2.09-4.525 4.73 0 2.64 2.097 4.62 4.525 4.62 1.104 0 1.987-.55 2.428-1.1h.11v.66c0 1.76-.992 2.75-2.538 2.75-1.214 0-2.097-.88-2.317-1.65l-1.766.77c.552 1.21 1.876 2.75 4.194 2.75 2.428 0 4.414-1.43 4.414-4.84V24.2H87.9v.77zm-5.077 3.63c0 1.65 1.214 2.86 2.649 2.86 1.434 0 2.538-1.21 2.538-2.86s-1.103-2.86-2.538-2.86c-1.435 0-2.65 1.21-2.65 2.86zm29.579-9.35h-4.967V33h2.097v-5.17h2.87c2.318 0 4.525-1.65 4.525-4.29s-2.207-4.29-4.525-4.29zm-2.87 6.6h2.98c1.435 0 2.318-1.21 2.429-2.42 0-.99-.883-2.31-2.429-2.31h-2.98v4.73zm15.673-1.98c-1.545 0-3.09.66-3.642 2.09l1.876.77c.442-.77 1.104-.99 1.876-.99 1.104 0 2.097.66 2.208 1.76v.11c-.331-.22-1.214-.55-2.097-.55-1.987 0-3.974 1.1-3.974 3.08 0 1.87 1.656 3.08 3.422 3.08 1.435 0 2.097-.66 2.649-1.32h.11V33h1.987v-5.28c-.221-2.42-2.097-3.85-4.415-3.85zm-1.876 6.38c0 .88.993 1.21 1.655 1.21 1.104 0 2.208-.88 2.428-2.2l-.161-.065-.003-.001c-.481-.196-.918-.374-1.712-.374-.993 0-2.207.33-2.207 1.43zm13.244-6.05l-2.318 5.94h-.11l-2.428-5.94h-2.208l3.643 8.36-2.097 4.62h2.097l5.629-12.98h-2.208zM120.127 33h-2.097V19.25h2.097V33z" fill="#434C54"/><path d="M11.523 8.25c-.332.33-.552.88-.552 1.54V34.1c0 .66.22 1.21.552 1.54l.11.11 13.686-13.64v-.22L11.523 8.25z" fill="url(#paint0_linear_1997_224)"/><path d="M29.844 26.73l-4.525-4.51v-.33l4.525-4.51.11.11 5.409 3.08c1.545.88 1.545 2.31 0 3.19l-5.519 2.97z" fill="url(#paint1_linear_1997_224)"/><path d="M29.955 26.62L25.319 22 11.523 35.75c.552.55 1.324.55 2.318.11l16.114-9.24z" fill="url(#paint2_linear_1997_224)"/><path d="M29.955 17.38L13.84 8.25c-.994-.55-1.766-.44-2.318.11L25.319 22l4.636-4.62z" fill="url(#paint3_linear_1997_224)"/><path opacity=".2" d="M29.844 26.51L13.84 35.53c-.883.55-1.655.44-2.207 0l-.11.11.11.11c.552.44 1.325.55 2.208 0l16.003-9.24z" fill="#000"/><path opacity=".12" d="M11.523 35.53c-.332-.33-.442-.88-.442-1.54v.11c0 .66.22 1.21.552 1.54v-.11h-.11zm23.839-12.1l-5.518 3.08.11.11 5.408-3.08c.773-.44 1.104-.99 1.104-1.54 0 .55-.441.99-1.104 1.43z" fill="#000"/><path opacity=".25" d="M13.84 8.36l21.522 12.21c.663.44 1.104.88 1.104 1.43 0-.55-.33-1.1-1.104-1.54L13.84 8.25c-1.545-.88-2.759-.11-2.759 1.65v.11c0-1.76 1.214-2.53 2.76-1.65z" fill="#fff"/><defs><linearGradient id="paint0_linear_1997_224" x1="19.288" y1="-8.17" x2="-2.629" y2="-2.223" gradientUnits="userSpaceOnUse"><stop stop-color="#00A0FF"/><stop offset=".007" stop-color="#00A1FF"/><stop offset=".26" stop-color="#00BEFF"/><stop offset=".512" stop-color="#00D2FF"/><stop offset=".76" stop-color="#00DFFF"/><stop offset="1" stop-color="#00E3FF"/></linearGradient><linearGradient id="paint1_linear_1997_224" x1="37.387" y1="10.857" x2="10.681" y2="10.857" gradientUnits="userSpaceOnUse"><stop stop-color="#FFE000"/><stop offset=".409" stop-color="#FFBD00"/><stop offset=".775" stop-color="orange"/><stop offset="1" stop-color="#FF9C00"/></linearGradient><linearGradient id="paint2_linear_1997_224" x1="11.173" y1="14.865" x2="-6.361" y2="44.402" gradientUnits="userSpaceOnUse"><stop stop-color="#FF3A44"/><stop offset="1" stop-color="#C31162"/></linearGradient><linearGradient id="paint3_linear_1997_224" x1=".798" y1="4.487" x2="8.565" y2="17.695" gradientUnits="userSpaceOnUse"><stop stop-color="#32A071"/><stop offset=".069" stop-color="#2DA771"/><stop offset=".476" stop-color="#15CF74"/><stop offset=".801" stop-color="#06E775"/><stop offset="1" stop-color="#00F076"/></linearGradient></defs></svg>